<svg width="60" height="60" viewBox="0 0 60 60" fill="none" xmlns="http://www.w3.org/2000/svg">
<path d="M56.8119 3.19747C55.8034 2.17994 54.6025 1.37322 53.2792 0.824282C51.9558 0.275347 50.5365 -0.00483053 49.1039 6.30123e-05H11.2298C8.34079 0.00258286 5.57083 1.15135 3.52799 3.19419C1.48515 5.23703 0.336382 8.00699 0.333862 10.896V36.1517C0.336382 39.0407 1.48515 41.8107 3.52799 43.8535C5.57083 45.8964 8.34079 47.0452 11.2298 47.0477H12.9617V55.0888C12.9487 56.004 13.2149 56.9014 13.725 57.6614C14.235 58.4214 14.9647 59.0078 15.8166 59.3425C16.37 59.5664 16.961 59.6827 17.558 59.685C18.1583 59.6851 18.7522 59.5628 19.3036 59.3255C19.855 59.0883 20.3523 58.7411 20.7649 58.3052L32.0701 47.0477H49.1039C51.9929 47.0452 54.7628 45.8964 56.8057 43.8535C58.8485 41.8107 59.9973 39.0407 59.9998 36.1517V10.896C60.0047 9.46562 59.7254 8.04851 59.1782 6.72694C58.6309 5.40537 57.8266 4.20567 56.8119 3.19747ZM57.1545 36.1517C57.1495 38.2828 56.3007 40.3252 54.7938 41.8321C53.2869 43.339 51.2445 44.1878 49.1134 44.1928H31.4896C31.1129 44.1927 30.751 44.3395 30.4809 44.602L18.7475 56.2973C18.5165 56.5431 18.2163 56.7128 17.8866 56.7842C17.5569 56.8556 17.2134 56.8252 16.9014 56.697C16.582 56.5681 16.3091 56.3454 16.1189 56.0583C15.9286 55.7712 15.8298 55.4332 15.8356 55.0888V45.5727C15.8356 45.1941 15.6852 44.831 15.4175 44.5633C15.1498 44.2956 14.7868 44.1453 14.4082 44.1453H11.2298C9.09871 44.1402 7.05634 43.2914 5.54943 41.7845C4.04252 40.2776 3.19372 38.2352 3.18869 36.1042V10.896C3.19121 8.76414 4.03921 6.72031 5.54666 5.21286C7.05411 3.70541 9.09794 2.85741 11.2298 2.85489H49.1039C51.235 2.85992 53.2773 3.70872 54.7842 5.21563C56.2912 6.72254 57.14 8.76491 57.145 10.896L57.1545 36.1517Z" fill="#50B887"/>
<path d="M30.1671 7.26099C26.9695 7.261 23.8437 8.2086 21.1844 9.9841C18.525 11.7596 16.4515 14.2833 15.2257 17.2366C13.9999 20.1899 13.6768 23.4402 14.2971 26.577C14.9175 29.7137 16.4535 32.5963 18.7112 34.8607C20.9689 37.125 23.847 38.6695 26.9819 39.2991C30.1169 39.9286 33.3681 39.615 36.325 38.3979C39.2818 37.1808 41.8117 35.1147 43.595 32.4606C45.3783 29.8065 46.335 26.6835 46.3444 23.4859C46.3419 19.1918 44.6383 15.0736 41.6063 12.0327C38.5744 8.99186 34.4612 7.27609 30.1671 7.26099ZM30.1671 36.8465C27.5321 36.8465 24.9563 36.0652 22.7654 34.6013C20.5746 33.1374 18.867 31.0567 17.8586 28.6223C16.8503 26.1879 16.5865 23.5092 17.1005 20.9249C17.6146 18.3406 18.8834 15.9667 20.7466 14.1035C22.6098 12.2404 24.9836 10.9715 27.568 10.4575C30.1523 9.9434 32.831 10.2072 35.2654 11.2156C37.6997 12.2239 39.7804 13.9315 41.2443 16.1224C42.7082 18.3133 43.4896 20.8891 43.4896 23.524C43.4746 27.0527 42.0661 30.4327 39.5709 32.9279C37.0757 35.4231 33.6958 36.8315 30.1671 36.8465Z" fill="#21AFDC"/>
<path d="M29.6137 14.2361L29.2425 14.2837C28.8779 14.2986 28.5151 14.3431 28.1577 14.4169C26.989 14.6095 25.9068 15.1539 25.0555 15.9775C24.7104 16.3182 24.5085 16.7778 24.4908 17.2624C24.4731 17.7469 24.641 18.22 24.9603 18.5849C25.2458 18.918 25.9119 19.3557 27.0919 18.5183L27.2917 18.3661C27.9929 17.835 28.8483 17.5477 29.7279 17.5477H30.1751C30.6298 17.5594 31.0704 17.7084 31.4389 17.975C31.8074 18.2417 32.0867 18.6135 32.2401 19.0417C32.3709 19.454 32.3677 19.8971 32.2309 20.3075C32.0942 20.7178 31.8309 21.0742 31.4788 21.3256C31.2675 21.5103 31.045 21.6819 30.8127 21.8394L30.5558 22.0203C29.7575 22.5623 29.1461 23.3378 28.8055 24.2406C28.4648 25.1434 28.4114 26.1295 28.6525 27.0638C28.8714 27.8346 29.1855 28.2248 29.6042 28.2248C30.0229 28.2248 30.2893 27.8536 30.4796 27.1114C30.7501 26.0672 31.3428 25.1348 32.1735 24.4469C32.5066 24.1709 32.8587 23.914 33.2012 23.6665C33.5438 23.4191 33.8293 23.2098 34.1529 22.9719C35.009 22.3243 35.5961 21.3836 35.8015 20.33C36.007 19.2764 35.8164 18.184 35.2662 17.2622C34.1433 15.3495 32.3829 14.3883 29.6137 14.2361Z" fill="#21AFDC"/>
<path d="M30.166 29.6235C29.9505 29.6099 29.7345 29.6391 29.5304 29.7093C29.3262 29.7795 29.138 29.8894 28.9765 30.0327C28.7034 30.3301 28.5597 30.7237 28.5768 31.1271C28.5622 31.5598 28.7196 31.9806 29.0146 32.2976C29.1689 32.4394 29.3508 32.5481 29.5488 32.6168C29.7469 32.6856 29.9569 32.7129 30.166 32.6972C30.3847 32.7045 30.6027 32.6678 30.807 32.5893C31.0113 32.5109 31.1979 32.3923 31.3555 32.2405C31.4992 32.09 31.6111 31.9123 31.6847 31.7178C31.7582 31.5232 31.7919 31.3159 31.7837 31.108C31.7975 30.8978 31.764 30.6871 31.6856 30.4916C31.6071 30.296 31.4858 30.1206 31.3306 29.9781C31.1754 29.8357 30.9902 29.7299 30.7886 29.6685C30.587 29.6071 30.3743 29.5918 30.166 29.6235Z" fill="#21AFDC"/>
</svg>
