<svg width="24" height="25" viewBox="0 0 24 25" fill="none" xmlns="http://www.w3.org/2000/svg">
<g clip-path="url(#clip0_90_4513)">
<path d="M24 12.5C24 5.87262 18.6274 0.5 12 0.5C5.37262 0.5 0 5.87262 0 12.5C0 18.4895 4.38825 23.454 10.125 24.3542V15.9688H7.07812V12.5H10.125V9.85625C10.125 6.84875 11.9166 5.1875 14.6576 5.1875C15.9705 5.1875 17.3438 5.42188 17.3438 5.42188V8.375H15.8306C14.3399 8.375 13.875 9.30003 13.875 10.2491V12.5H17.2031L16.6711 15.9688H13.875V24.3542C19.6117 23.454 24 18.4896 24 12.5Z" fill="#1877F2"/>
<path d="M16.6711 15.9688L17.2031 12.5H13.875V10.2491C13.875 9.29994 14.3399 8.375 15.8306 8.375H17.3438V5.42188C17.3438 5.42188 15.9705 5.1875 14.6575 5.1875C11.9166 5.1875 10.125 6.84875 10.125 9.85625V12.5H7.07812V15.9688H10.125V24.3542C10.7453 24.4514 11.3722 24.5002 12 24.5C12.6278 24.5002 13.2547 24.4514 13.875 24.3542V15.9688H16.6711Z" fill="white"/>
</g>
<defs>
<clipPath id="clip0_90_4513">
<rect width="24" height="24" fill="white" transform="translate(0 0.5)"/>
</clipPath>
</defs>
</svg>
