<svg width="220" height="51" viewBox="0 0 220 51" fill="none" xmlns="http://www.w3.org/2000/svg">
<g clip-path="url(#clip0_1_2991)">
<path d="M72.4493 16.2048H57.3892V19.4841H63.1824V34.7951H66.6533V19.4841H72.4493V16.2048Z" fill="#57A3BC"/>
<path d="M83.7065 22.995C83.2202 22.0649 82.5076 21.4119 81.563 21.0331C80.6184 20.6543 79.5369 20.4648 78.3213 20.4648C76.6613 20.4648 75.3506 20.8267 74.3921 21.5504C73.4307 22.2741 72.7768 23.2127 72.4275 24.3661L75.5658 25.3725C75.7866 24.7364 76.175 24.2926 76.7283 24.0438C77.2817 23.795 77.8127 23.6706 78.3241 23.6706C79.2435 23.6706 79.8974 23.8657 80.2887 24.253C80.5961 24.5555 80.7805 24.9965 80.8476 25.5704C80.2607 25.658 79.7046 25.7428 79.1792 25.822C78.2849 25.9548 77.4857 26.0962 76.7814 26.2404C76.0744 26.3874 75.468 26.5542 74.9566 26.7436C74.216 27.0178 73.6263 27.3599 73.1904 27.7698C72.7516 28.1797 72.4358 28.649 72.2402 29.1833C72.0446 29.7176 71.9468 30.3056 71.9468 30.9529C71.9468 31.7275 72.1228 32.4343 72.4778 33.076C72.8299 33.7177 73.3497 34.2294 74.0344 34.6111C74.719 34.9927 75.5546 35.1849 76.5411 35.1849C77.7316 35.1849 78.7181 34.9757 79.495 34.5602C80.1098 34.2322 80.6883 33.7375 81.2361 33.0845V34.8005H84.2738V26.2799C84.2738 25.6439 84.2486 25.0672 84.1983 24.5498C84.148 24.0325 83.9859 23.518 83.7121 23.0006L83.7065 22.995ZM80.4647 30.56C80.3697 30.7579 80.1937 31.0038 79.9338 31.295C79.6739 31.589 79.3245 31.8491 78.8886 32.0753C78.4498 32.3042 77.9133 32.4173 77.2733 32.4173C76.8737 32.4173 76.5299 32.358 76.2393 32.2364C75.9487 32.1148 75.7279 31.9424 75.5686 31.7134C75.4121 31.4844 75.3338 31.213 75.3338 30.8936C75.3338 30.6618 75.3813 30.4497 75.482 30.2603C75.5798 30.0709 75.7335 29.8957 75.9403 29.7373C76.1499 29.579 76.4237 29.4292 76.7647 29.2907C77.0609 29.1776 77.4074 29.0758 77.7987 28.9797C78.1899 28.8864 78.7041 28.779 79.3441 28.6631C79.7549 28.5896 80.2468 28.502 80.8169 28.4058C80.8085 28.6518 80.7973 28.9232 80.7805 29.2313C80.7498 29.7345 80.6464 30.1755 80.4675 30.5543L80.4647 30.56Z" fill="#57A3BC"/>
<path d="M91.3161 15.8176H87.8452V34.7952H91.3161V15.8176Z" fill="#57A3BC"/>
<path d="M107.624 20.8524H103.335L98.6649 27.5636V16.2048H95.1437L95.1157 34.7951H98.6649V28.081L103.438 34.7951H107.954L102.647 27.8237L107.624 20.8524Z" fill="#57A3BC"/>
<path d="M120.916 23.8462H112.697V16.2048H109.227V34.7951H112.697V27.1255H120.916V34.7951H124.387V16.2048H120.916V23.8462Z" fill="#57A3BC"/>
<path d="M137.86 21.4967C136.849 20.8069 135.619 20.4648 134.172 20.4648C132.811 20.4648 131.606 20.7758 130.561 21.4006C129.516 22.0253 128.694 22.9017 128.099 24.0268C127.504 25.1548 127.205 26.4807 127.205 28.0016C127.205 29.3953 127.509 30.6335 128.116 31.7134C128.725 32.7933 129.566 33.6414 130.642 34.2577C131.718 34.874 132.961 35.1821 134.376 35.1821C135.703 35.1821 136.927 34.8287 138.045 34.1248C139.163 33.4181 139.982 32.4286 140.501 31.1565L137.03 30.1501C136.776 30.7183 136.404 31.1537 135.921 31.4533C135.435 31.7558 134.853 31.9056 134.172 31.9056C133.09 31.9056 132.271 31.5494 131.715 30.8399C131.307 30.3197 131.05 29.6412 130.941 28.8073H140.616C140.761 27.1196 140.591 25.6524 140.105 24.4057C139.618 23.159 138.869 22.1893 137.858 21.5023L137.86 21.4967ZM134.325 23.5095C135.337 23.5095 136.066 23.8205 136.513 24.4452C136.807 24.8551 137.002 25.4403 137.103 26.1951H131.036C131.173 25.5506 131.396 25.0163 131.715 24.6007C132.271 23.8742 133.143 23.5095 134.325 23.5095Z" fill="#57A3BC"/>
<path d="M154.233 22.995C153.746 22.0649 153.034 21.4119 152.089 21.0331C151.145 20.6543 150.063 20.4648 148.847 20.4648C147.187 20.4648 145.877 20.8267 144.915 21.5504C143.954 22.2741 143.3 23.2127 142.951 24.3661L146.089 25.3725C146.31 24.7364 146.698 24.2926 147.252 24.0438C147.805 23.795 148.336 23.6706 148.847 23.6706C149.767 23.6706 150.421 23.8657 150.812 24.253C151.119 24.5555 151.304 24.9965 151.371 25.5704C150.784 25.658 150.228 25.7428 149.703 25.822C148.808 25.9548 148.009 26.0962 147.305 26.2404C146.598 26.3874 145.991 26.5542 145.48 26.7436C144.739 27.0178 144.15 27.3599 143.711 27.7698C143.272 28.1797 142.956 28.649 142.761 29.1833C142.565 29.7176 142.467 30.3056 142.467 30.9529C142.467 31.7275 142.643 32.4343 142.998 33.076C143.35 33.7177 143.87 34.2294 144.555 34.6111C145.24 34.9927 146.075 35.1849 147.062 35.1849C148.252 35.1849 149.239 34.9757 150.016 34.5602C150.63 34.2322 151.209 33.7375 151.757 33.0845V34.8005H154.794V26.2799C154.794 25.6439 154.769 25.0672 154.719 24.5498C154.669 24.0325 154.506 23.518 154.233 23.0006V22.995ZM150.991 30.56C150.896 30.7579 150.72 31.0038 150.46 31.295C150.2 31.589 149.851 31.8491 149.415 32.0753C148.976 32.3042 148.439 32.4173 147.799 32.4173C147.4 32.4173 147.056 32.358 146.765 32.2364C146.475 32.1148 146.254 31.9424 146.095 31.7134C145.938 31.4844 145.86 31.213 145.86 30.8936C145.86 30.6618 145.907 30.4497 146.005 30.2603C146.103 30.0709 146.257 29.8957 146.464 29.7373C146.673 29.579 146.947 29.4292 147.288 29.2907C147.587 29.1776 147.931 29.0758 148.322 28.9797C148.713 28.8836 149.227 28.779 149.867 28.6631C150.278 28.5896 150.77 28.502 151.34 28.4058C151.332 28.6518 151.321 28.9232 151.304 29.2313C151.273 29.7345 151.17 30.1755 150.991 30.5543V30.56Z" fill="#57A3BC"/>
<path d="M161.837 15.8176H158.366V34.7952H161.837V15.8176Z" fill="#57A3BC"/>
<path d="M169.95 16.9795H166.48V20.8525H164.132V23.5635H166.48V28.8811C166.48 29.715 166.488 30.4614 166.505 31.1201C166.521 31.7787 166.7 32.4261 167.041 33.0622C167.416 33.7435 167.961 34.2354 168.682 34.5407C169.4 34.846 170.216 35.01 171.133 35.0326C172.046 35.0552 172.98 34.9732 173.933 34.7951V31.8777C173.117 31.9908 172.371 32.0247 171.7 31.9823C171.026 31.9399 170.537 31.6713 170.233 31.1823C170.071 30.925 169.984 30.5773 169.97 30.1419C169.956 29.7066 169.95 29.2175 169.95 28.6775V23.5664H173.933V20.8553H169.95V16.9823V16.9795Z" fill="#57A3BC"/>
<path d="M189.564 24.1769C189.402 23.5606 189.131 22.9698 188.753 22.4016C188.376 21.8334 187.845 21.3641 187.166 20.9937C186.484 20.6234 185.604 20.4397 184.525 20.4397C183.172 20.4397 182.052 20.7365 181.163 21.3302C180.744 21.61 180.378 21.9323 180.059 22.2913V16.2048H176.971V34.7951H180.492V27.722C180.492 26.8541 180.587 26.1558 180.78 25.63C180.973 25.1042 181.216 24.7056 181.515 24.437C181.814 24.1684 182.133 23.9819 182.471 23.8886C182.812 23.7953 183.131 23.7472 183.427 23.7472C184.167 23.7472 184.74 23.914 185.143 24.2504C185.548 24.5868 185.838 25.0024 186.017 25.5028C186.196 26.0032 186.302 26.4979 186.336 26.9926C186.369 27.4873 186.386 27.8944 186.386 28.2139V34.7979H189.907V26.9756C189.907 26.7438 189.891 26.3735 189.857 25.8646C189.824 25.3558 189.726 24.796 189.564 24.1798V24.1769Z" fill="#57A3BC"/>
<path d="M197.26 31.2839H193.789V34.795H197.26V31.2839Z" fill="#57A3BC"/>
<path d="M212.395 22.9952C211.909 22.0652 211.196 21.4121 210.251 21.0333C209.307 20.6545 208.225 20.4651 207.01 20.4651C205.35 20.4651 204.039 20.8269 203.078 21.5507C202.116 22.2744 201.462 23.2129 201.113 24.3663L204.251 25.3727C204.472 24.7367 204.861 24.2928 205.414 24.044C205.967 23.7953 206.498 23.6709 207.01 23.6709C207.929 23.6709 208.583 23.8659 208.974 24.2532C209.282 24.5557 209.466 24.9967 209.533 25.5706C208.946 25.6583 208.39 25.7431 207.865 25.8222C206.971 25.9551 206.171 26.0964 205.467 26.2406C204.76 26.3876 204.154 26.5544 203.642 26.7438C202.902 27.018 202.312 27.3601 201.873 27.77C201.434 28.1799 201.119 28.6492 200.923 29.1835C200.727 29.7178 200.63 30.3058 200.63 30.9532C200.63 31.7278 200.806 32.4345 201.161 33.0763C201.513 33.718 202.033 34.2297 202.717 34.6113C203.402 34.9929 204.237 35.1852 205.224 35.1852C206.414 35.1852 207.401 34.976 208.178 34.5604C208.793 34.2325 209.371 33.7378 209.919 33.0847V34.8007H212.957V26.2802C212.957 25.6441 212.932 25.0674 212.881 24.5501C212.831 24.0327 212.669 23.5182 212.395 23.0009V22.9952ZM209.153 30.5602C209.058 30.7581 208.882 31.0041 208.622 31.2953C208.362 31.5893 208.013 31.8493 207.577 32.0755C207.138 32.3045 206.602 32.4176 205.962 32.4176C205.562 32.4176 205.218 32.3582 204.928 32.2366C204.637 32.1151 204.416 31.9426 204.257 31.7136C204.101 31.4847 204.022 31.2133 204.022 30.8938C204.022 30.662 204.07 30.45 204.168 30.2606C204.265 30.0712 204.419 29.8959 204.626 29.7376C204.836 29.5793 205.109 29.4294 205.45 29.2909C205.749 29.1778 206.093 29.0761 206.484 28.98C206.876 28.8838 207.39 28.7792 208.03 28.6633C208.441 28.5898 208.932 28.5022 209.503 28.4061C209.494 28.652 209.483 28.9234 209.466 29.2316C209.435 29.7348 209.332 30.1758 209.153 30.5546V30.5602Z" fill="#57A3BC"/>
<path d="M219.999 15.8176H216.528V18.916H219.999V15.8176Z" fill="#57A3BC"/>
<path d="M219.999 20.8525H216.528V34.7952H219.999V20.8525Z" fill="#57A3BC"/>
<path d="M24.9978 0.212646C11.1924 0.212646 0 11.5347 0 25.5C0 39.4653 11.1924 50.7874 24.9978 50.7874C38.8031 50.7874 49.9956 39.4653 49.9956 25.5C49.9956 11.5347 38.8031 0.212646 24.9978 0.212646ZM25.2605 42.3149C22.4156 42.3149 19.7383 41.6053 17.3797 40.3586L7.71592 43.1178L10.259 33.2403C8.97069 30.8176 8.23851 28.0471 8.23851 25.1014C8.23851 15.5943 15.8566 7.88508 25.2577 7.88508C34.6587 7.88508 42.2768 15.5914 42.2768 25.1014C42.2768 34.6114 34.6587 42.3177 25.2577 42.3177L25.2605 42.3149Z" fill="#57A3BC"/>
<path d="M17.832 19.7754H23.343V34.3428H26.6462V19.7754H32.1572V16.6572H17.832V19.7754Z" fill="#A4CCB9"/>
</g>
<defs>
<clipPath id="clip0_1_2991">
<rect width="220" height="50.5747" fill="white" transform="translate(0 0.212646)"/>
</clipPath>
</defs>
</svg>
