<svg width="23" height="19" viewBox="0 0 23 19" fill="none" xmlns="http://www.w3.org/2000/svg">
<path d="M8.98572 8.49315C8.51135 8.33503 8.51135 7.66515 8.98572 7.50703L11.7702 6.57984C12.3822 6.37575 12.9384 6.0319 13.3945 5.57554C13.8506 5.11918 14.1942 4.56285 14.3979 3.95065L15.3251 1.16765C15.4832 0.693277 16.1531 0.693277 16.3112 1.16765L17.2384 3.95209C17.4425 4.56418 17.7863 5.12032 18.2427 5.57643C18.6991 6.03254 19.2554 6.37609 19.8676 6.57984L22.6506 7.50702C22.7545 7.54112 22.8449 7.60714 22.9091 7.69569C22.9732 7.78423 23.0077 7.89076 23.0077 8.00009C23.0077 8.10942 22.9732 8.21595 22.9091 8.30449C22.8449 8.39303 22.7545 8.45906 22.6506 8.49315L19.8662 9.42034C19.2542 9.62428 18.6982 9.96791 18.2421 10.424C17.786 10.8801 17.4424 11.4362 17.2384 12.0481L16.3112 14.8325C16.2771 14.9364 16.2111 15.0269 16.1226 15.091C16.034 15.1551 15.9275 15.1896 15.8182 15.1896C15.7088 15.1896 15.6023 15.1551 15.5138 15.091C15.4252 15.0269 15.3592 14.9364 15.3251 14.8325L14.3979 12.0481C14.194 11.4362 13.8503 10.8801 13.3942 10.424C12.9381 9.96791 12.3821 9.62428 11.7702 9.42034L8.98572 8.49315ZM1.65591 14.0462C1.59366 14.0256 1.53949 13.9859 1.50109 13.9327C1.46269 13.8796 1.44203 13.8157 1.44203 13.7501C1.44203 13.6845 1.46269 13.6206 1.50109 13.5674C1.53949 13.5143 1.59366 13.4746 1.65591 13.454L3.32628 12.8977C4.07091 12.649 4.65454 12.0653 4.90322 11.3207L5.45953 9.65034C5.48015 9.58809 5.51986 9.53392 5.57302 9.49552C5.62618 9.45712 5.69008 9.43646 5.75566 9.43646C5.82124 9.43646 5.88514 9.45712 5.9383 9.49552C5.99146 9.53392 6.03117 9.58809 6.05178 9.65034L6.6081 11.3207C6.73045 11.688 6.93666 12.0217 7.21037 12.2954C7.48409 12.5691 7.81779 12.7753 8.18504 12.8977L9.85541 13.454C9.91766 13.4746 9.97183 13.5143 10.0102 13.5674C10.0486 13.6206 10.0693 13.6845 10.0693 13.7501C10.0693 13.8157 10.0486 13.8796 10.0102 13.9327C9.97183 13.9859 9.91766 14.0256 9.85541 14.0462L8.18504 14.6025C7.81779 14.7249 7.48409 14.9311 7.21037 15.2048C6.93666 15.4785 6.73045 15.8122 6.6081 16.1795L6.05178 17.8498C6.03117 17.9121 5.99146 17.9663 5.9383 18.0047C5.88514 18.0431 5.82124 18.0637 5.75566 18.0637C5.69008 18.0637 5.62618 18.0431 5.57302 18.0047C5.51986 17.9663 5.48015 17.9121 5.45954 17.8498L4.90322 16.1795C4.78087 15.8122 4.57466 15.4785 4.30095 15.2048C4.02723 14.9311 3.69353 14.7249 3.32628 14.6025L1.65591 14.0462ZM0.147972 3.88453C0.107041 3.87034 0.0715486 3.84375 0.0464292 3.80845C0.0213099 3.77316 0.00781187 3.73091 0.00781187 3.68759C0.00781187 3.64427 0.0213099 3.60202 0.0464292 3.56673C0.0715485 3.53143 0.107041 3.50484 0.147972 3.49065L1.2606 3.11978C1.75797 2.95446 2.14753 2.5649 2.31285 2.06753L2.68372 0.954903C2.69791 0.913971 2.7245 0.878479 2.7598 0.853359C2.79509 0.828239 2.83734 0.814741 2.88066 0.814741C2.92398 0.814741 2.96623 0.828239 3.00152 0.853359C3.03681 0.878479 3.06341 0.913971 3.0776 0.954903L3.44847 2.06753C3.53001 2.31264 3.66757 2.53536 3.85023 2.71802C4.03289 2.90068 4.25561 3.03824 4.50072 3.11978L5.61335 3.49065C5.65428 3.50484 5.68977 3.53143 5.71489 3.56673C5.74001 3.60202 5.75351 3.64427 5.75351 3.68759C5.75351 3.73091 5.74001 3.77315 5.71489 3.80845C5.68977 3.84374 5.65428 3.87034 5.61335 3.88453L4.50072 4.2554C4.25561 4.33694 4.03289 4.4745 3.85023 4.65716C3.66757 4.83982 3.53001 5.06254 3.44847 5.30765L3.0776 6.41884C3.06341 6.45977 3.03682 6.49526 3.00152 6.52038C2.96623 6.5455 2.92398 6.559 2.88066 6.559C2.83734 6.559 2.79509 6.5455 2.7598 6.52038C2.7245 6.49526 2.69791 6.45977 2.68372 6.41884L2.31285 5.30622C2.14753 4.80884 1.75797 4.41928 1.2606 4.25396L0.149409 3.88453L0.147972 3.88453Z" fill="#828282"/>
</svg>
